# xmcd
#
# Track frame offsets:
#	150
#	13573
#	30807
#	48832
#	65921
#	80116
#	91744
#	107709
#	123854
#	137551
#	161737
#
# Disc length: 2245 seconds
#
# Revision: 2
# Processed by: cddbd v1.5.1PL2 Copyright (c) Steve Scherf et al.
# Submitted via: audiograbber 1.82.01
#
DISCID=8308c30b
DTITLE=David Aaron DeSoto - Hoowrecker
DYEAR=2005
DGENRE=Folk
TTITLE0=Haunting Halo
TTITLE1=Last Night
TTITLE2=Das Lied Die Hoo Hoo Wolf
TTITLE3=Cause for Alarm
TTITLE4=Missy Brown Skirt
TTITLE5=Mama had a Feeling (take one)
TTITLE6=One Last Picture of Her
TTITLE7=Homewrecker
TTITLE8=Diamonds in the Sand
TTITLE9=Corazon del Diamante Suite
TTITLE10=The Moment That is This
EXTD=© 2005 David Aaron DeSoto\nhttp://cdbaby.com/cd/dadesoto
EXTT0=
EXTT1=
EXTT2=
EXTT3=
EXTT4=
EXTT5=
EXTT6=
EXTT7=
EXTT8=
EXTT9=
EXTT10=
PLAYORDER=
